<svg id="Livello_1" data-name="Livello 1" xmlns="http://www.w3.org/2000/svg" viewBox="0 0 1120.43 400.88"><defs><style>.cls-1,.cls-2,.cls-3,.cls-4,.cls-5,.cls-6{fill:none;stroke-miterlimit:10;}.cls-1,.cls-5{stroke:#000;}.cls-1,.cls-6{stroke-width:2px;}.cls-2,.cls-3{stroke:#29abe2;}.cls-2{stroke-width:30px;}.cls-3{stroke-width:36px;}.cls-4,.cls-6{stroke:red;}.cls-4,.cls-5{stroke-width:1.5px;}</style></defs><title>logo-blue</title><polyline class="cls-1" points="312 109.13 339 136.13 339 226.13 424.5 311.63"/><polyline class="cls-1" points="240 145.13 294 145.13 312 145.13 330 163.13 330 226.13 424.5 320.63"/><polyline class="cls-1" points="420 325.13 321 226.13 321 172.13 303 154.13 258 154.13"/><polyline class="cls-1" points="474.56 217.13 415.38 153.92 398.73 154.37 348 100.19 348 82.13"/><path class="cls-2" d="M225,575.85c-132.55,0-162,9-162-71.85s29.45-71.85,162-71.85" transform="translate(-48 -196.87)"/><polyline class="cls-2" points="240 217.13 240 379.13 357 379.13"/><path d="M527.69,478.8H512.93v-5.33h35.93v5.33H534V522h-6.34Z" transform="translate(-48 -196.87)"/><path d="M585.15,499.25H566.28v17.49h21V522H560V473.47h26.21v5.25h-20v15.34h18.87Z" transform="translate(-48 -196.87)"/><path d="M635.11,520.42c-2.3,1.15-6.91,2.3-12.81,2.3-13.68,0-24-8.64-24-24.55,0-15.2,10.3-25.49,25.35-25.49,6,0,9.86,1.29,11.52,2.16L633.67,480a22.82,22.82,0,0,0-9.79-2c-11.38,0-18.94,7.28-18.94,20,0,11.88,6.84,19.51,18.65,19.51a25.16,25.16,0,0,0,10.23-2Z" transform="translate(-48 -196.87)"/><path d="M655,473.47v20.3h23.48v-20.3h6.33V522h-6.33V499.25H655V522h-6.26V473.47Z" transform="translate(-48 -196.87)"/><path class="cls-3" d="M522,333a72,72,0,0,1,72,72" transform="translate(-48 -196.87)"/><path class="cls-3" d="M207,432" transform="translate(-48 -196.87)"/><path class="cls-3" d="M207,423V378c0-81,68.5-162,153-162s153,55.69,153,135.5" transform="translate(-48 -196.87)"/><path class="cls-3" d="M252,405" transform="translate(-48 -196.87)"/><path class="cls-2" d="M909,405v99c.78,48.28-33.06,75.28-71.22,75.28-36,0-72-27-72-72v-99" transform="translate(-48 -196.87)"/><path class="cls-2" d="M972,566.7c132.55,0,162,9,162-71.85S1104.55,423,972,423Z" transform="translate(-48 -196.87)"/><path class="cls-2" d="M1044,621" transform="translate(-48 -196.87)"/><path d="M680.63,303.3,664.88,351H644.63l51.52-151.65h23.63L771.53,351H750.6l-16.2-47.7ZM730.35,288,715.5,244.35c-3.37-9.9-5.62-18.9-7.87-27.68h-.45c-2.25,9-4.73,18.23-7.65,27.45L684.68,288Z" transform="translate(-48 -196.87)"/><path d="M807.08,199.35v89.77c0,34,15.07,48.38,35.32,48.38,22.5,0,36.9-14.85,36.9-48.38V199.35h19.8v88.42c0,46.58-24.52,65.71-57.37,65.71-31.05,0-54.45-17.78-54.45-64.81V199.35Z" transform="translate(-48 -196.87)"/><path d="M961.87,216H915.75V199.35H1028V216H981.67V351h-19.8Z" transform="translate(-48 -196.87)"/><path d="M1168.43,273.6c0,52.2-31.73,79.88-70.43,79.88-40,0-68.18-31.06-68.18-77,0-48.15,29.93-79.65,70.43-79.65C1141.65,196.87,1168.43,228.6,1168.43,273.6Zm-117.68,2.47c0,32.4,17.55,61.43,48.38,61.43,31,0,48.6-28.58,48.6-63,0-30.15-15.75-61.65-48.38-61.65C1067,212.85,1050.75,242.77,1050.75,276.07Z" transform="translate(-48 -196.87)"/><path class="cls-4" d="M504,414" transform="translate(-48 -196.87)"/><path class="cls-4" d="M513,414" transform="translate(-48 -196.87)"/><polyline class="cls-1" points="447 226.13 438 217.13 438 208.13"/><polyline class="cls-1" points="429 253.13 402 226.13 402 190.13 370.5 158.63"/><path class="cls-5" d="M414,342" transform="translate(-48 -196.87)"/><circle class="cls-1" cx="348" cy="77.63" r="4.5"/><circle class="cls-1" cx="361.76" cy="99.95" r="4.5"/><circle class="cls-1" cx="367.52" cy="155.7" r="4.5"/><polyline class="cls-1" points="366 100.13 375 100.13 483 217.13"/><circle class="cls-1" cx="411" cy="176.63" r="4.5"/><circle class="cls-1" cx="384" cy="194.63" r="4.5"/><circle class="cls-1" cx="237.17" cy="169.29" r="4.5"/><circle class="cls-1" cx="289.5" cy="298.13" r="4.5"/><circle class="cls-1" cx="253.5" cy="154.13" r="4.5"/><circle class="cls-1" cx="438" cy="203.63" r="4.5"/><circle class="cls-1" cx="366" cy="176.63" r="4.5"/><circle class="cls-1" cx="275.96" cy="275.63" r="4.5"/><circle class="cls-1" cx="235.5" cy="145.13" r="4.5"/><circle class="cls-1" cx="309.24" cy="105.89" r="4.5"/><circle class="cls-1" cx="330" cy="77.63" r="4.5"/><circle class="cls-1" cx="262.5" cy="325.13" r="4.5"/><polyline class="cls-1" points="330 82.13 330 100.13 393 163.13 411 163.13 465 217.13"/><path class="cls-5" d="M459,423" transform="translate(-48 -196.87)"/><polyline class="cls-1" points="411 181.13 411 226.13 433.5 248.63"/><polyline class="cls-1" points="384 199.13 384 208.13 384 226.13 424.5 266.63"/><polyline class="cls-1" points="366 181.13 366 226.13 424.5 284.63"/><path class="cls-2" d="M666,423c63,9,63,144,0,153s-81,9-144,0c-54.19-7.74-54-144,0-153C578.72,413.55,623.38,416.91,666,423Z" transform="translate(-48 -196.87)"/><path class="cls-4" d="M468,531" transform="translate(-48 -196.87)"/><path class="cls-6" d="M306,387" transform="translate(-48 -196.87)"/><polyline class="cls-1" points="285 172.13 285 235.13 384 334.13 420 334.13"/><path class="cls-4" d="M288,396" transform="translate(-48 -196.87)"/><path class="cls-6" d="M297,378" transform="translate(-48 -196.87)"/><polyline class="cls-1" points="240 172.13 267 190.13 267 235.13 348 316.13 348 361.13"/><polyline class="cls-1" points="267 253.13 330 316.13 330 361.13"/><polyline class="cls-1" points="321 361.13 321 316.13 303 298.13 294 298.13"/><circle class="cls-1" cx="285" cy="167.94" r="4.5"/><circle class="cls-1" cx="264.37" cy="250.05" r="4.5"/><circle class="cls-1" cx="267" cy="266.63" r="4.5"/><path class="cls-1" d="M405,477" transform="translate(-48 -196.87)"/><path class="cls-4" d="M360,558" transform="translate(-48 -196.87)"/><path class="cls-4" d="M351,558" transform="translate(-48 -196.87)"/><path class="cls-4" d="M357.24,558" transform="translate(-48 -196.87)"/><polyline class="cls-1" points="312 361.13 312 334.13 275.96 298.09 275.96 280.13"/><polyline class="cls-1" points="303 361.13 303 342.87 267.13 307 267 270.59"/><path class="cls-4" d="M315,558" transform="translate(-48 -196.87)"/><polyline class="cls-1" points="294 361.13 294 352.51 294 343.72 275.79 325.51 267 325.13"/></svg>